<svg id="My_Illustration" data-name="My Illustration" xmlns="http://www.w3.org/2000/svg" width="583" height="507" viewBox="0 0 583 507">
  <defs>
    <style>
      .cls-1 {
        fill: #2d2f3f;
      }

      .cls-1, .cls-2, .cls-3, .cls-4, .cls-5 {
        fill-rule: evenodd;
      }

      .cls-2 {
        fill: #47294e;
      }

      .cls-3 {
        fill: #d7beca;
      }

      .cls-4 {
        fill: #f6dae8;
      }

      .cls-5 {
        fill: #2c2c2c;
      }
    </style>
  </defs>
  <path id="innerwear" class="cls-1" d="M225,258s-12.891,5.13-13,18a20.913,20.913,0,0,0,2,8s-3.295,11.552-6,14c-1.125,4.423-9.715,24.271-10,30-0.877,4.741-1.9,23.288-4,31,0.173,5.836-5,6-5,6a225.219,225.219,0,0,0-1,48c1.089,17.294-2.92,25.658-6,55-2.038,18.136,5,40,5,40H412c6.73,2.148,31.255-28.617,6-40-7.458-3.361,16.714-37.817-1-42,0,0-7.237-18.173-6-31,1.327-13.762-11.042-53.432-12-63s-2.9-11.982-13-23-18.538-21.786-23-24c-0.033-.911,0-4,0-4a13.7,13.7,0,0,0,4-14,19.992,19.992,0,0,0-5-8s-3.84-6.344-3-9-4,6-4,6l-7,17s-29.452,38.22-69,27c-7.236-.535-29.683-7.671-41-20s-11-12-11-12Z"/>
  <path id="Hoodie" class="cls-2" d="M211,296s-11.181,1.085-24,15c-1.2,1.479-3-1-3-1s-6.583-3.869-15,5c-2.257,2.012-5.259,5.9-8,5s-1.3-4.057-12-9c-9.978-1.14-23.194-.695-27-3s-19.169-3.316-20-1-2.429,9.575,0,15a79.578,79.578,0,0,1,4,12s-14.924,8.977-15,14c-4.79,3.138-35.678,13.561-55,49-10.6,19.179-26.079,48.729-26,64-1.335,9.379-6,22-6,22L0,507H188l3-16,8-68s0.524-29.865-1-36,1.3-48.7,4-56,4-21,4-21S208.047,299.164,211,296Zm162-3s3.1,11.286,9,16,10.135,12.583,13,19,6,32,6,32l8,27v22l-1,12s5.566,70.526,5,79a14.441,14.441,0,0,1-4,7H583l-1-3s1.889-12.768-9-26c-2.3-6.638-4.887-37.324-21-64s-26.007-43.158-64-57c-3.028-.96-13.675-6.669-22-18a160.761,160.761,0,0,0-14-17s-2.026-5.56-5-7-9,0-9,0-4.862,2.647-10-3c-1.61-.28-14-1-14-1s-24.529-15.244-28-17S376.987,292.847,373,293Z"/>
  <path id="Neck" class="cls-3" d="M224,254s-1.788,12.036,2,18,23.534,29.507,60,35c8.364,0.859,37.53-1.476,58-24,3.579-4.587,12.648-16.6,12-23s-3-4-3-4Z"/>
  <path id="Ear_Left" data-name="Ear Left" class="cls-4" d="M194,155s-6.753-8.521-10-2-1,15-1,15l9,37s5.907,11.844,17,7c1.873-5.305,0-36,0-36Z"/>
  <path id="Ear_Right" data-name="Ear Right" class="cls-4" d="M387,155s6.753-8.521,10-2,1,15,1,15l-9,37s-5.907,11.844-17,7c-1.873-5.305,0-36,0-36Z"/>
  <path id="Face" class="cls-4" d="M205,174s2.944,38.5,4,46,4.728,27.161,17,37,32,24,32,24,16,10,33,10,28-6,28-6l30-21s15.515-11.4,19-23,3.937-15.138,5-27,2-34,2-34l4-20,1-52L312,91l-42-9L232,65,201,98l-2,47Z"/>
  <path id="Hair" class="cls-5" d="M191,152l-4-2s3.239-2.019,1-6-3.227-4.774-3-14c-1.555-1.563-.8-4.894-1-10s-1.008-13.61,1-18c1.652-2.965,2.783-4.62,0-7-0.728-1.189-5-3-5-3s7.891-.887,5-3a39.5,39.5,0,0,1-6-6s2.19-1.282,2-6a8.652,8.652,0,0,1,4,0l-5-8s6.915,2.4,7-5c0.085-4.051-2-9-2-9l8-10s-1.119,15.109,2,12,5.367-5.695,5-9c1.905-1.574,14-14,14-14s12.937-4.62,18-12c3.981-4.784,8.758-9.477,20-14a20.743,20.743,0,0,0,7-2s8.507-3.69,12-5,16.056-1.342,24,1c4.374,1.8,9.455,3.658,14,3,4,0.748,10,2,10,2s13.665,2.1,18,7c0.951,2.312,5.131,6.5,12,6,4.58,2.185,13,11,13,11s7.008-.642,9,0,2.361,6.2,8,8a42.673,42.673,0,0,0,8,2l1,6,13,8,2,5s3.185,2.992,6,2,4,0,4,0-3.729-1.18-4,2-2.571-.981-6,1-3,4-3,4l2,5-5,8s1.7,5.487-1,15a83.3,83.3,0,0,0,0,14s-4.119,8.034-3,13,1,5,1,5c0.119-1.21-.592,14.994-2,20-0.118,2.433-2.073,4.3-3,8-0.6,2.4-6,4-6,4s-6.781,18.191-8,19-0.548-41.558-3-49c1.075-3.445,4.69-8.564,3-12s-11.385-1.39-18-4,0,5,0,5-25.469-6.4-34-10a129.181,129.181,0,0,1-11-9,31.243,31.243,0,0,0,7,13c-6.245-.359-28.237.544-40-12s-32.338-32.7-43-27-21.912,9.935-30,32c-1.8,7.021,1,14,1,14l-2,56s-2.532-4.534-7-11-5.628-8.773-6-10S191,152,191,152Z"/>
</svg>
